<svg width="565" height="25" viewBox="0 0 565 25" fill="none" xmlns="http://www.w3.org/2000/svg">
<path d="M1.78834 18.5V6.764H5.10034C6.00034 6.764 6.81034 6.878 7.53034 7.106C8.25034 7.334 8.86834 7.688 9.38434 8.168C9.90034 8.636 10.2963 9.236 10.5723 9.968C10.8483 10.7 10.9863 11.57 10.9863 12.578C10.9863 13.586 10.8483 14.462 10.5723 15.206C10.2963 15.95 9.90634 16.568 9.40234 17.06C8.89834 17.54 8.29234 17.9 7.58434 18.14C6.88834 18.38 6.10834 18.5 5.24434 18.5H1.78834ZM4.43434 16.358H4.93834C5.44234 16.358 5.89834 16.292 6.30634 16.16C6.71434 16.028 7.06234 15.818 7.35034 15.53C7.63834 15.23 7.86034 14.84 8.01634 14.36C8.18434 13.88 8.26834 13.286 8.26834 12.578C8.26834 11.882 8.18434 11.3 8.01634 10.832C7.86034 10.352 7.63834 9.974 7.35034 9.698C7.06234 9.41 6.71434 9.206 6.30634 9.086C5.89834 8.966 5.44234 8.906 4.93834 8.906H4.43434V16.358ZM16.9941 18.716C16.3581 18.716 15.7641 18.614 15.2121 18.41C14.6601 18.194 14.1801 17.888 13.7721 17.492C13.3641 17.084 13.0461 16.592 12.8181 16.016C12.5901 15.44 12.4761 14.78 12.4761 14.036C12.4761 13.316 12.5961 12.668 12.8361 12.092C13.0761 11.504 13.3881 11.012 13.7721 10.616C14.1681 10.208 14.6181 9.896 15.1221 9.68C15.6261 9.464 16.1481 9.356 16.6881 9.356C17.3241 9.356 17.8761 9.464 18.3441 9.68C18.8241 9.896 19.2201 10.196 19.5321 10.58C19.8561 10.964 20.0961 11.42 20.2521 11.948C20.4081 12.464 20.4861 13.028 20.4861 13.64C20.4861 13.88 20.4741 14.108 20.4501 14.324C20.4261 14.54 20.4021 14.702 20.3781 14.81H15.0321C15.1521 15.458 15.4161 15.938 15.8241 16.25C16.2441 16.55 16.7541 16.7 17.3541 16.7C17.9901 16.7 18.6321 16.502 19.2801 16.106L20.1621 17.708C19.7061 18.02 19.1961 18.266 18.6321 18.446C18.0801 18.626 17.5341 18.716 16.9941 18.716ZM15.0141 13.064H18.2361C18.2361 12.56 18.1221 12.152 17.8941 11.84C17.6661 11.528 17.2821 11.372 16.7421 11.372C16.3221 11.372 15.9501 11.51 15.6261 11.786C15.3141 12.062 15.1101 12.488 15.0141 13.064ZM24.7445 18.716C24.2885 18.716 23.9045 18.644 23.5925 18.5C23.2805 18.356 23.0285 18.158 22.8365 17.906C22.6565 17.642 22.5245 17.33 22.4405 16.97C22.3565 16.598 22.3145 16.184 22.3145 15.728V5.882H24.9605V15.836C24.9605 16.112 25.0085 16.304 25.1045 16.412C25.2125 16.52 25.3205 16.574 25.4285 16.574C25.4885 16.574 25.5365 16.574 25.5725 16.574C25.6205 16.574 25.6805 16.562 25.7525 16.538L26.0765 18.5C25.9325 18.56 25.7465 18.608 25.5185 18.644C25.3025 18.692 25.0445 18.716 24.7445 18.716ZM27.4649 18.5V9.572H30.1109V18.5H27.4649ZM28.7789 8.258C28.3349 8.258 27.9689 8.132 27.6809 7.88C27.3929 7.616 27.2489 7.28 27.2489 6.872C27.2489 6.464 27.3929 6.134 27.6809 5.882C27.9689 5.63 28.3349 5.504 28.7789 5.504C29.2349 5.504 29.6009 5.63 29.8769 5.882C30.1649 6.134 30.3089 6.464 30.3089 6.872C30.3089 7.28 30.1649 7.616 29.8769 7.88C29.6009 8.132 29.2349 8.258 28.7789 8.258ZM34.4915 18.5L31.4855 9.572H34.1495L35.3015 13.784C35.4215 14.228 35.5355 14.684 35.6435 15.152C35.7635 15.608 35.8835 16.07 36.0035 16.538H36.0755C36.1835 16.07 36.2915 15.608 36.3995 15.152C36.5195 14.684 36.6395 14.228 36.7595 13.784L37.9295 9.572H40.4675L37.5515 18.5H34.4915ZM45.7168 18.716C45.0808 18.716 44.4868 18.614 43.9348 18.41C43.3828 18.194 42.9028 17.888 42.4948 17.492C42.0868 17.084 41.7688 16.592 41.5408 16.016C41.3128 15.44 41.1988 14.78 41.1988 14.036C41.1988 13.316 41.3188 12.668 41.5588 12.092C41.7988 11.504 42.1108 11.012 42.4948 10.616C42.8908 10.208 43.3408 9.896 43.8448 9.68C44.3488 9.464 44.8708 9.356 45.4108 9.356C46.0468 9.356 46.5988 9.464 47.0668 9.68C47.5468 9.896 47.9428 10.196 48.2548 10.58C48.5788 10.964 48.8188 11.42 48.9748 11.948C49.1308 12.464 49.2088 13.028 49.2088 13.64C49.2088 13.88 49.1968 14.108 49.1728 14.324C49.1488 14.54 49.1248 14.702 49.1008 14.81H43.7548C43.8748 15.458 44.1388 15.938 44.5468 16.25C44.9668 16.55 45.4768 16.7 46.0768 16.7C46.7128 16.7 47.3548 16.502 48.0028 16.106L48.8848 17.708C48.4288 18.02 47.9188 18.266 47.3548 18.446C46.8028 18.626 46.2568 18.716 45.7168 18.716ZM43.7368 13.064H46.9588C46.9588 12.56 46.8448 12.152 46.6168 11.84C46.3888 11.528 46.0048 11.372 45.4648 11.372C45.0448 11.372 44.6728 11.51 44.3488 11.786C44.0368 12.062 43.8328 12.488 43.7368 13.064ZM51.0372 18.5V9.572H53.1972L53.3772 11.138H53.4492C53.7732 10.526 54.1632 10.076 54.6192 9.788C55.0752 9.5 55.5312 9.356 55.9872 9.356C56.2392 9.356 56.4432 9.374 56.5992 9.41C56.7672 9.434 56.9172 9.476 57.0492 9.536L56.6172 11.822C56.4492 11.774 56.2932 11.738 56.1492 11.714C56.0052 11.69 55.8372 11.678 55.6452 11.678C55.3092 11.678 54.9552 11.798 54.5832 12.038C54.2232 12.278 53.9232 12.704 53.6832 13.316V18.5H51.0372ZM65.2506 18.716C64.6986 18.716 64.2246 18.632 63.8286 18.464C63.4446 18.296 63.1266 18.062 62.8746 17.762C62.6346 17.462 62.4546 17.102 62.3346 16.682C62.2266 16.25 62.1726 15.776 62.1726 15.26V11.642H60.9486V9.68L62.3166 9.572L62.6226 7.196H64.8186V9.572H66.9606V11.642H64.8186V15.224C64.8186 15.728 64.9206 16.094 65.1246 16.322C65.3406 16.538 65.6226 16.646 65.9706 16.646C66.1146 16.646 66.2586 16.628 66.4026 16.592C66.5586 16.556 66.6966 16.514 66.8166 16.466L67.2306 18.392C66.9906 18.464 66.7086 18.536 66.3846 18.608C66.0606 18.68 65.6826 18.716 65.2506 18.716ZM72.2208 18.716C71.6568 18.716 71.1108 18.614 70.5828 18.41C70.0548 18.194 69.5868 17.888 69.1788 17.492C68.7828 17.096 68.4648 16.61 68.2248 16.034C67.9848 15.446 67.8648 14.78 67.8648 14.036C67.8648 13.292 67.9848 12.632 68.2248 12.056C68.4648 11.468 68.7828 10.976 69.1788 10.58C69.5868 10.184 70.0548 9.884 70.5828 9.68C71.1108 9.464 71.6568 9.356 72.2208 9.356C72.7848 9.356 73.3248 9.464 73.8408 9.68C74.3688 9.884 74.8308 10.184 75.2268 10.58C75.6348 10.976 75.9588 11.468 76.1988 12.056C76.4388 12.632 76.5588 13.292 76.5588 14.036C76.5588 14.78 76.4388 15.446 76.1988 16.034C75.9588 16.61 75.6348 17.096 75.2268 17.492C74.8308 17.888 74.3688 18.194 73.8408 18.41C73.3248 18.614 72.7848 18.716 72.2208 18.716ZM72.2208 16.574C72.7608 16.574 73.1688 16.346 73.4448 15.89C73.7208 15.434 73.8588 14.816 73.8588 14.036C73.8588 13.256 73.7208 12.638 73.4448 12.182C73.1688 11.726 72.7608 11.498 72.2208 11.498C71.6688 11.498 71.2548 11.726 70.9788 12.182C70.7148 12.638 70.5828 13.256 70.5828 14.036C70.5828 14.816 70.7148 15.434 70.9788 15.89C71.2548 16.346 71.6688 16.574 72.2208 16.574ZM79.9012 12.884C79.4452 12.884 79.0612 12.728 78.7492 12.416C78.4492 12.092 78.2992 11.696 78.2992 11.228C78.2992 10.748 78.4492 10.352 78.7492 10.04C79.0612 9.716 79.4452 9.554 79.9012 9.554C80.3572 9.554 80.7352 9.716 81.0352 10.04C81.3472 10.352 81.5032 10.748 81.5032 11.228C81.5032 11.696 81.3472 12.092 81.0352 12.416C80.7352 12.728 80.3572 12.884 79.9012 12.884ZM79.9012 18.716C79.4452 18.716 79.0612 18.56 78.7492 18.248C78.4492 17.924 78.2992 17.528 78.2992 17.06C78.2992 16.58 78.4492 16.184 78.7492 15.872C79.0612 15.548 79.4452 15.386 79.9012 15.386C80.3572 15.386 80.7352 15.548 81.0352 15.872C81.3472 16.184 81.5032 16.58 81.5032 17.06C81.5032 17.528 81.3472 17.924 81.0352 18.248C80.7352 18.56 80.3572 18.716 79.9012 18.716Z" fill="#424242"/>
<path d="M101.297 20.8984C101.613 21.3906 102.352 21.3906 102.668 20.8984C107.801 13.5156 108.75 12.7422 108.75 10C108.75 6.27344 105.727 3.25 102 3.25C98.2383 3.25 95.25 6.27344 95.25 10C95.25 12.7422 96.1641 13.5156 101.297 20.8984ZM102 12.8125C100.418 12.8125 99.1875 11.582 99.1875 10C99.1875 8.45312 100.418 7.1875 102 7.1875C103.547 7.1875 104.812 8.45312 104.812 10C104.812 11.582 103.547 12.8125 102 12.8125Z" fill="#FFB30E"/>
<path d="M125.271 7.30176C123.859 7.30176 122.743 7.77344 121.923 8.7168C121.108 9.6543 120.701 10.9404 120.701 12.5752C120.701 14.2568 121.094 15.5576 121.879 16.4775C122.67 17.3916 123.795 17.8486 125.254 17.8486C126.15 17.8486 127.173 17.6875 128.321 17.3652V18.6748C127.431 19.0088 126.332 19.1758 125.025 19.1758C123.133 19.1758 121.671 18.6016 120.64 17.4531C119.614 16.3047 119.102 14.6729 119.102 12.5576C119.102 11.2334 119.348 10.0732 119.84 9.07715C120.338 8.08105 121.053 7.31348 121.984 6.77441C122.922 6.23535 124.023 5.96582 125.289 5.96582C126.637 5.96582 127.814 6.21191 128.822 6.7041L128.189 7.9873C127.217 7.53027 126.244 7.30176 125.271 7.30176ZM132.276 9.36719V15.6162C132.276 16.4014 132.455 16.9873 132.812 17.374C133.17 17.7607 133.729 17.9541 134.491 17.9541C135.499 17.9541 136.234 17.6787 136.697 17.1279C137.166 16.5771 137.4 15.6777 137.4 14.4297V9.36719H138.859V19H137.655L137.444 17.708H137.365C137.066 18.1826 136.65 18.5459 136.117 18.7979C135.59 19.0498 134.986 19.1758 134.307 19.1758C133.135 19.1758 132.256 18.8975 131.67 18.3408C131.09 17.7842 130.8 16.8936 130.8 15.6689V9.36719H132.276ZM146.356 9.19141C146.784 9.19141 147.168 9.22656 147.508 9.29688L147.306 10.6504C146.907 10.5625 146.556 10.5186 146.251 10.5186C145.472 10.5186 144.804 10.835 144.247 11.4678C143.696 12.1006 143.421 12.8887 143.421 13.832V19H141.962V9.36719H143.166L143.333 11.1514H143.403C143.761 10.5244 144.191 10.041 144.695 9.70117C145.199 9.36133 145.753 9.19141 146.356 9.19141ZM153.704 9.19141C154.132 9.19141 154.516 9.22656 154.855 9.29688L154.653 10.6504C154.255 10.5625 153.903 10.5186 153.599 10.5186C152.819 10.5186 152.151 10.835 151.595 11.4678C151.044 12.1006 150.769 12.8887 150.769 13.832V19H149.31V9.36719H150.514L150.681 11.1514H150.751C151.108 10.5244 151.539 10.041 152.043 9.70117C152.547 9.36133 153.101 9.19141 153.704 9.19141ZM160.727 19.1758C159.303 19.1758 158.178 18.7422 157.352 17.875C156.531 17.0078 156.121 15.8037 156.121 14.2627C156.121 12.71 156.502 11.4766 157.264 10.5625C158.031 9.64844 159.06 9.19141 160.349 9.19141C161.556 9.19141 162.511 9.58984 163.214 10.3867C163.917 11.1777 164.269 12.2236 164.269 13.5244V14.4473H157.633C157.662 15.5781 157.946 16.4365 158.485 17.0225C159.03 17.6084 159.795 17.9014 160.779 17.9014C161.816 17.9014 162.842 17.6846 163.855 17.251V18.5518C163.34 18.7744 162.851 18.9326 162.388 19.0264C161.931 19.126 161.377 19.1758 160.727 19.1758ZM160.331 10.4131C159.558 10.4131 158.939 10.665 158.477 11.1689C158.02 11.6729 157.75 12.3701 157.668 13.2607H162.704C162.704 12.3408 162.499 11.6377 162.089 11.1514C161.679 10.6592 161.093 10.4131 160.331 10.4131ZM173.356 19V12.7686C173.356 11.9834 173.178 11.3975 172.82 11.0107C172.463 10.624 171.903 10.4307 171.142 10.4307C170.134 10.4307 169.396 10.7031 168.927 11.248C168.458 11.793 168.224 12.6924 168.224 13.9463V19H166.765V9.36719H167.951L168.188 10.6855H168.259C168.558 10.2109 168.977 9.84473 169.516 9.58691C170.055 9.32324 170.655 9.19141 171.317 9.19141C172.478 9.19141 173.351 9.47266 173.937 10.0352C174.522 10.5918 174.815 11.4854 174.815 12.7158V19H173.356ZM180.933 17.9717C181.19 17.9717 181.439 17.9541 181.68 17.9189C181.92 17.8779 182.11 17.8369 182.251 17.7959V18.9121C182.093 18.9883 181.858 19.0498 181.548 19.0967C181.243 19.1494 180.968 19.1758 180.722 19.1758C178.858 19.1758 177.927 18.1943 177.927 16.2314V10.501H176.547V9.79785L177.927 9.19141L178.542 7.13477H179.386V9.36719H182.181V10.501H179.386V16.1699C179.386 16.75 179.523 17.1953 179.799 17.5059C180.074 17.8164 180.452 17.9717 180.933 17.9717ZM189.08 19V6.15039H190.574V17.6465H196.243V19H189.08ZM206.526 14.1748C206.526 15.7451 206.131 16.9727 205.34 17.8574C204.549 18.7363 203.456 19.1758 202.062 19.1758C201.2 19.1758 200.436 18.9736 199.768 18.5693C199.1 18.165 198.584 17.585 198.221 16.8291C197.857 16.0732 197.676 15.1885 197.676 14.1748C197.676 12.6045 198.068 11.3828 198.854 10.5098C199.639 9.63086 200.729 9.19141 202.123 9.19141C203.471 9.19141 204.54 9.63965 205.331 10.5361C206.128 11.4326 206.526 12.6455 206.526 14.1748ZM199.188 14.1748C199.188 15.4053 199.434 16.3428 199.926 16.9873C200.418 17.6318 201.142 17.9541 202.097 17.9541C203.052 17.9541 203.775 17.6348 204.268 16.9961C204.766 16.3516 205.015 15.4111 205.015 14.1748C205.015 12.9502 204.766 12.0215 204.268 11.3887C203.775 10.75 203.046 10.4307 202.079 10.4307C201.124 10.4307 200.403 10.7441 199.917 11.3711C199.431 11.998 199.188 12.9326 199.188 14.1748ZM212.942 19.1758C211.548 19.1758 210.467 18.748 209.699 17.8926C208.938 17.0312 208.557 15.8154 208.557 14.2451C208.557 12.6338 208.943 11.3887 209.717 10.5098C210.496 9.63086 211.604 9.19141 213.039 9.19141C213.502 9.19141 213.965 9.24121 214.428 9.34082C214.891 9.44043 215.254 9.55762 215.518 9.69238L215.069 10.9316C214.747 10.8027 214.396 10.6973 214.015 10.6152C213.634 10.5273 213.297 10.4834 213.004 10.4834C211.047 10.4834 210.068 11.7314 210.068 14.2275C210.068 15.4111 210.306 16.3193 210.78 16.9521C211.261 17.585 211.97 17.9014 212.907 17.9014C213.71 17.9014 214.533 17.7285 215.377 17.3828V18.6748C214.732 19.0088 213.921 19.1758 212.942 19.1758ZM223.595 19L223.305 17.6289H223.234C222.754 18.2324 222.273 18.6426 221.793 18.8594C221.318 19.0703 220.724 19.1758 220.009 19.1758C219.054 19.1758 218.304 18.9297 217.759 18.4375C217.22 17.9453 216.95 17.2451 216.95 16.3369C216.95 14.3916 218.506 13.3721 221.617 13.2783L223.252 13.2256V12.6279C223.252 11.8721 223.088 11.3154 222.76 10.958C222.438 10.5947 221.919 10.4131 221.204 10.4131C220.401 10.4131 219.493 10.6592 218.479 11.1514L218.031 10.0352C218.506 9.77734 219.024 9.5752 219.587 9.42871C220.155 9.28223 220.724 9.20898 221.292 9.20898C222.44 9.20898 223.29 9.46387 223.841 9.97363C224.397 10.4834 224.676 11.3008 224.676 12.4258V19H223.595ZM220.299 17.9717C221.207 17.9717 221.919 17.7227 222.435 17.2246C222.956 16.7266 223.217 16.0293 223.217 15.1328V14.2627L221.758 14.3242C220.598 14.3652 219.76 14.5469 219.244 14.8691C218.734 15.1855 218.479 15.6807 218.479 16.3545C218.479 16.8818 218.638 17.2832 218.954 17.5586C219.276 17.834 219.725 17.9717 220.299 17.9717ZM230.802 17.9717C231.06 17.9717 231.309 17.9541 231.549 17.9189C231.789 17.8779 231.979 17.8369 232.12 17.7959V18.9121C231.962 18.9883 231.728 19.0498 231.417 19.0967C231.112 19.1494 230.837 19.1758 230.591 19.1758C228.728 19.1758 227.796 18.1943 227.796 16.2314V10.501H226.416V9.79785L227.796 9.19141L228.411 7.13477H229.255V9.36719H232.05V10.501H229.255V16.1699C229.255 16.75 229.393 17.1953 229.668 17.5059C229.943 17.8164 230.321 17.9717 230.802 17.9717ZM235.513 19H234.054V9.36719H235.513V19ZM233.931 6.75684C233.931 6.42285 234.013 6.17969 234.177 6.02734C234.341 5.86914 234.546 5.79004 234.792 5.79004C235.026 5.79004 235.229 5.86914 235.398 6.02734C235.568 6.18555 235.653 6.42871 235.653 6.75684C235.653 7.08496 235.568 7.33105 235.398 7.49512C235.229 7.65332 235.026 7.73242 234.792 7.73242C234.546 7.73242 234.341 7.65332 234.177 7.49512C234.013 7.33105 233.931 7.08496 233.931 6.75684ZM246.921 14.1748C246.921 15.7451 246.525 16.9727 245.734 17.8574C244.943 18.7363 243.851 19.1758 242.456 19.1758C241.595 19.1758 240.83 18.9736 240.162 18.5693C239.494 18.165 238.979 17.585 238.615 16.8291C238.252 16.0732 238.07 15.1885 238.07 14.1748C238.07 12.6045 238.463 11.3828 239.248 10.5098C240.033 9.63086 241.123 9.19141 242.518 9.19141C243.865 9.19141 244.935 9.63965 245.726 10.5361C246.522 11.4326 246.921 12.6455 246.921 14.1748ZM239.582 14.1748C239.582 15.4053 239.828 16.3428 240.32 16.9873C240.812 17.6318 241.536 17.9541 242.491 17.9541C243.446 17.9541 244.17 17.6348 244.662 16.9961C245.16 16.3516 245.409 15.4111 245.409 14.1748C245.409 12.9502 245.16 12.0215 244.662 11.3887C244.17 10.75 243.44 10.4307 242.474 10.4307C241.519 10.4307 240.798 10.7441 240.312 11.3711C239.825 11.998 239.582 12.9326 239.582 14.1748ZM256.079 19V12.7686C256.079 11.9834 255.9 11.3975 255.543 11.0107C255.186 10.624 254.626 10.4307 253.864 10.4307C252.856 10.4307 252.118 10.7031 251.649 11.248C251.181 11.793 250.946 12.6924 250.946 13.9463V19H249.487V9.36719H250.674L250.911 10.6855H250.981C251.28 10.2109 251.699 9.84473 252.238 9.58691C252.777 9.32324 253.378 9.19141 254.04 9.19141C255.2 9.19141 256.073 9.47266 256.659 10.0352C257.245 10.5918 257.538 11.4854 257.538 12.7158V19H256.079Z" fill="#424242"/>
<path d="M270.105 19L267.012 8.91895H266.933C267.044 10.9697 267.1 12.3379 267.1 13.0234V19H264.665V6.15039H268.374L271.415 15.9766H271.468L274.693 6.15039H278.402V19H275.862V12.918C275.862 12.6309 275.865 12.2998 275.871 11.9248C275.883 11.5498 275.924 10.5537 275.994 8.93652H275.915L272.602 19H270.105ZM283.57 14.0693C283.57 15.042 283.729 15.7773 284.045 16.2754C284.367 16.7734 284.889 17.0225 285.609 17.0225C286.324 17.0225 286.837 16.7764 287.147 16.2842C287.464 15.7861 287.622 15.0479 287.622 14.0693C287.622 13.0967 287.464 12.3672 287.147 11.8809C286.831 11.3945 286.312 11.1514 285.592 11.1514C284.877 11.1514 284.361 11.3945 284.045 11.8809C283.729 12.3613 283.57 13.0908 283.57 14.0693ZM290.364 14.0693C290.364 15.6689 289.942 16.9199 289.099 17.8223C288.255 18.7246 287.08 19.1758 285.574 19.1758C284.631 19.1758 283.799 18.9707 283.078 18.5605C282.357 18.1445 281.804 17.5498 281.417 16.7764C281.03 16.0029 280.837 15.1006 280.837 14.0693C280.837 12.4639 281.256 11.2158 282.094 10.3252C282.932 9.43457 284.109 8.98926 285.627 8.98926C286.57 8.98926 287.402 9.19434 288.123 9.60449C288.844 10.0146 289.397 10.6035 289.784 11.3711C290.171 12.1387 290.364 13.0381 290.364 14.0693ZM301.649 19H298.969V13.2607C298.969 11.8428 298.441 11.1338 297.387 11.1338C296.637 11.1338 296.095 11.3887 295.761 11.8984C295.427 12.4082 295.26 13.2344 295.26 14.377V19H292.579V5.32422H295.26V8.11035C295.26 8.32715 295.239 8.83691 295.198 9.63965L295.137 10.4307H295.277C295.875 9.46973 296.824 8.98926 298.125 8.98926C299.279 8.98926 300.155 9.2998 300.753 9.9209C301.351 10.542 301.649 11.4326 301.649 12.5928V19ZM310.649 19L310.131 17.6641H310.061C309.609 18.2324 309.144 18.6279 308.663 18.8506C308.188 19.0674 307.567 19.1758 306.8 19.1758C305.856 19.1758 305.112 18.9062 304.567 18.3672C304.028 17.8281 303.759 17.0605 303.759 16.0645C303.759 15.0215 304.122 14.2539 304.849 13.7617C305.581 13.2637 306.683 12.9883 308.153 12.9355L309.858 12.8828V12.4521C309.858 11.4561 309.349 10.958 308.329 10.958C307.544 10.958 306.621 11.1953 305.561 11.6699L304.673 9.85938C305.804 9.26758 307.058 8.97168 308.435 8.97168C309.753 8.97168 310.764 9.25879 311.467 9.83301C312.17 10.4072 312.521 11.2803 312.521 12.4521V19H310.649ZM309.858 14.4473L308.821 14.4824C308.042 14.5059 307.462 14.6465 307.081 14.9043C306.7 15.1621 306.51 15.5547 306.51 16.082C306.51 16.8379 306.943 17.2158 307.811 17.2158C308.432 17.2158 308.927 17.0371 309.296 16.6797C309.671 16.3223 309.858 15.8477 309.858 15.2559V14.4473ZM324.088 19H321.407V13.2607C321.407 12.5518 321.287 12.0215 321.047 11.6699C320.812 11.3125 320.44 11.1338 319.931 11.1338C319.245 11.1338 318.747 11.3857 318.437 11.8896C318.126 12.3936 317.971 13.2227 317.971 14.377V19H315.29V9.17383H317.338L317.698 10.4307H317.848C318.111 9.97949 318.492 9.62793 318.99 9.37598C319.488 9.11816 320.06 8.98926 320.704 8.98926C322.175 8.98926 323.171 9.46973 323.692 10.4307H323.93C324.193 9.97363 324.58 9.61914 325.09 9.36719C325.605 9.11523 326.186 8.98926 326.83 8.98926C327.943 8.98926 328.784 9.27637 329.353 9.85059C329.927 10.4189 330.214 11.333 330.214 12.5928V19H327.524V13.2607C327.524 12.5518 327.404 12.0215 327.164 11.6699C326.93 11.3125 326.558 11.1338 326.048 11.1338C325.392 11.1338 324.899 11.3682 324.571 11.8369C324.249 12.3057 324.088 13.0498 324.088 14.0693V19ZM341.771 19H339.091V13.2607C339.091 12.5518 338.971 12.0215 338.73 11.6699C338.496 11.3125 338.124 11.1338 337.614 11.1338C336.929 11.1338 336.431 11.3857 336.12 11.8896C335.81 12.3936 335.654 13.2227 335.654 14.377V19H332.974V9.17383H335.021L335.382 10.4307H335.531C335.795 9.97949 336.176 9.62793 336.674 9.37598C337.172 9.11816 337.743 8.98926 338.388 8.98926C339.858 8.98926 340.854 9.46973 341.376 10.4307H341.613C341.877 9.97363 342.264 9.61914 342.773 9.36719C343.289 9.11523 343.869 8.98926 344.514 8.98926C345.627 8.98926 346.468 9.27637 347.036 9.85059C347.61 10.4189 347.897 11.333 347.897 12.5928V19H345.208V13.2607C345.208 12.5518 345.088 12.0215 344.848 11.6699C344.613 11.3125 344.241 11.1338 343.731 11.1338C343.075 11.1338 342.583 11.3682 342.255 11.8369C341.933 12.3057 341.771 13.0498 341.771 14.0693V19ZM356.897 19L356.379 17.6641H356.309C355.857 18.2324 355.392 18.6279 354.911 18.8506C354.437 19.0674 353.815 19.1758 353.048 19.1758C352.104 19.1758 351.36 18.9062 350.815 18.3672C350.276 17.8281 350.007 17.0605 350.007 16.0645C350.007 15.0215 350.37 14.2539 351.097 13.7617C351.829 13.2637 352.931 12.9883 354.401 12.9355L356.106 12.8828V12.4521C356.106 11.4561 355.597 10.958 354.577 10.958C353.792 10.958 352.869 11.1953 351.809 11.6699L350.921 9.85938C352.052 9.26758 353.306 8.97168 354.683 8.97168C356.001 8.97168 357.012 9.25879 357.715 9.83301C358.418 10.4072 358.77 11.2803 358.77 12.4521V19H356.897ZM356.106 14.4473L355.069 14.4824C354.29 14.5059 353.71 14.6465 353.329 14.9043C352.948 15.1621 352.758 15.5547 352.758 16.082C352.758 16.8379 353.191 17.2158 354.059 17.2158C354.68 17.2158 355.175 17.0371 355.544 16.6797C355.919 16.3223 356.106 15.8477 356.106 15.2559V14.4473ZM364.649 19.1758C363.495 19.1758 362.587 18.7275 361.925 17.8311C361.269 16.9346 360.94 15.6924 360.94 14.1045C360.94 12.4932 361.274 11.2393 361.942 10.3428C362.616 9.44043 363.542 8.98926 364.72 8.98926C365.956 8.98926 366.899 9.46973 367.55 10.4307H367.638C367.503 9.69824 367.436 9.04492 367.436 8.4707V5.32422H370.125V19H368.068L367.55 17.7256H367.436C366.826 18.6924 365.897 19.1758 364.649 19.1758ZM365.59 17.04C366.275 17.04 366.776 16.8408 367.093 16.4424C367.415 16.0439 367.591 15.3672 367.62 14.4121V14.1221C367.62 13.0674 367.456 12.3115 367.128 11.8545C366.806 11.3975 366.278 11.1689 365.546 11.1689C364.948 11.1689 364.482 11.4238 364.148 11.9336C363.82 12.4375 363.656 13.1729 363.656 14.1396C363.656 15.1064 363.823 15.833 364.157 16.3193C364.491 16.7998 364.969 17.04 365.59 17.04ZM378.325 19.1758C377.171 19.1758 376.266 18.7568 375.609 17.9189H375.469C375.562 18.7393 375.609 19.2139 375.609 19.3428V23.3242H372.929V9.17383H375.108L375.486 10.4482H375.609C376.236 9.47559 377.165 8.98926 378.396 8.98926C379.556 8.98926 380.464 9.4375 381.12 10.334C381.776 11.2305 382.104 12.4756 382.104 14.0693C382.104 15.1182 381.949 16.0293 381.639 16.8027C381.334 17.5762 380.897 18.165 380.329 18.5693C379.761 18.9736 379.093 19.1758 378.325 19.1758ZM377.534 11.1338C376.872 11.1338 376.389 11.3389 376.084 11.749C375.779 12.1533 375.621 12.8242 375.609 13.7617V14.0518C375.609 15.1064 375.765 15.8623 376.075 16.3193C376.392 16.7764 376.89 17.0049 377.569 17.0049C378.771 17.0049 379.371 16.0146 379.371 14.0342C379.371 13.0674 379.222 12.3438 378.923 11.8633C378.63 11.377 378.167 11.1338 377.534 11.1338ZM391.28 19L390.92 17.7432H390.779C390.492 18.2002 390.085 18.5547 389.558 18.8066C389.03 19.0527 388.43 19.1758 387.756 19.1758C386.602 19.1758 385.731 18.8682 385.146 18.2529C384.56 17.6318 384.267 16.7412 384.267 15.5811V9.17383H386.947V14.9131C386.947 15.6221 387.073 16.1553 387.325 16.5127C387.577 16.8643 387.979 17.04 388.529 17.04C389.279 17.04 389.821 16.791 390.155 16.293C390.489 15.7891 390.656 14.957 390.656 13.7969V9.17383H393.337V19H391.28ZM401.634 8.98926C401.997 8.98926 402.299 9.01562 402.539 9.06836L402.337 11.582C402.12 11.5234 401.856 11.4941 401.546 11.4941C400.69 11.4941 400.022 11.7139 399.542 12.1533C399.067 12.5928 398.83 13.208 398.83 13.999V19H396.149V9.17383H398.18L398.575 10.8262H398.707C399.012 10.2754 399.422 9.83301 399.938 9.49902C400.459 9.15918 401.024 8.98926 401.634 8.98926ZM409.21 6.15039H413.209C415.031 6.15039 416.353 6.41113 417.173 6.93262C417.999 7.44824 418.412 8.27148 418.412 9.40234C418.412 10.1699 418.23 10.7998 417.867 11.292C417.51 11.7842 417.032 12.0801 416.435 12.1797V12.2676C417.249 12.4492 417.835 12.7891 418.192 13.2871C418.556 13.7852 418.737 14.4473 418.737 15.2734C418.737 16.4453 418.312 17.3594 417.463 18.0156C416.619 18.6719 415.471 19 414.018 19H409.21V6.15039ZM411.935 11.2393H413.517C414.255 11.2393 414.788 11.125 415.116 10.8965C415.45 10.668 415.617 10.29 415.617 9.7627C415.617 9.27051 415.436 8.91895 415.072 8.70801C414.715 8.49121 414.146 8.38281 413.367 8.38281H411.935V11.2393ZM411.935 13.4014V16.75H413.71C414.46 16.75 415.014 16.6064 415.371 16.3193C415.729 16.0322 415.907 15.5928 415.907 15.001C415.907 13.9346 415.146 13.4014 413.622 13.4014H411.935ZM428.054 19L427.693 17.7432H427.553C427.266 18.2002 426.858 18.5547 426.331 18.8066C425.804 19.0527 425.203 19.1758 424.529 19.1758C423.375 19.1758 422.505 18.8682 421.919 18.2529C421.333 17.6318 421.04 16.7412 421.04 15.5811V9.17383H423.721V14.9131C423.721 15.6221 423.847 16.1553 424.099 16.5127C424.351 16.8643 424.752 17.04 425.303 17.04C426.053 17.04 426.595 16.791 426.929 16.293C427.263 15.7891 427.43 14.957 427.43 13.7969V9.17383H430.11V19H428.054ZM439.778 16.082C439.778 17.0898 439.427 17.8574 438.724 18.3848C438.026 18.9121 436.98 19.1758 435.586 19.1758C434.871 19.1758 434.262 19.126 433.758 19.0264C433.254 18.9326 432.782 18.792 432.343 18.6045V16.3896C432.841 16.624 433.4 16.8203 434.021 16.9785C434.648 17.1367 435.199 17.2158 435.674 17.2158C436.646 17.2158 437.133 16.9346 437.133 16.3721C437.133 16.1611 437.068 15.9912 436.939 15.8623C436.811 15.7275 436.588 15.5781 436.271 15.4141C435.955 15.2441 435.533 15.0479 435.006 14.8252C434.25 14.5088 433.693 14.2158 433.336 13.9463C432.984 13.6768 432.727 13.3691 432.562 13.0234C432.404 12.6719 432.325 12.2412 432.325 11.7314C432.325 10.8584 432.662 10.1846 433.336 9.70996C434.016 9.22949 434.977 8.98926 436.219 8.98926C437.402 8.98926 438.554 9.24707 439.673 9.7627L438.864 11.6963C438.372 11.4854 437.912 11.3125 437.484 11.1777C437.057 11.043 436.62 10.9756 436.175 10.9756C435.384 10.9756 434.988 11.1895 434.988 11.6172C434.988 11.8574 435.114 12.0654 435.366 12.2412C435.624 12.417 436.184 12.6777 437.045 13.0234C437.812 13.334 438.375 13.624 438.732 13.8936C439.09 14.1631 439.354 14.4736 439.523 14.8252C439.693 15.1768 439.778 15.5957 439.778 16.082ZM454.342 15.4316C454.342 16.5918 453.923 17.5059 453.085 18.1738C452.253 18.8418 451.093 19.1758 449.604 19.1758C448.233 19.1758 447.021 18.918 445.966 18.4023V15.8711C446.833 16.2578 447.565 16.5303 448.163 16.6885C448.767 16.8467 449.317 16.9258 449.815 16.9258C450.413 16.9258 450.87 16.8115 451.187 16.583C451.509 16.3545 451.67 16.0146 451.67 15.5635C451.67 15.3115 451.6 15.0889 451.459 14.8955C451.318 14.6963 451.11 14.5059 450.835 14.3242C450.565 14.1426 450.012 13.8525 449.174 13.4541C448.389 13.085 447.8 12.7305 447.407 12.3906C447.015 12.0508 446.701 11.6553 446.467 11.2041C446.232 10.7529 446.115 10.2256 446.115 9.62207C446.115 8.48535 446.499 7.5918 447.267 6.94141C448.04 6.29102 449.106 5.96582 450.466 5.96582C451.134 5.96582 451.77 6.04492 452.373 6.20312C452.982 6.36133 453.618 6.58398 454.28 6.87109L453.401 8.98926C452.716 8.70801 452.147 8.51172 451.696 8.40039C451.251 8.28906 450.812 8.2334 450.378 8.2334C449.862 8.2334 449.467 8.35352 449.191 8.59375C448.916 8.83398 448.778 9.14746 448.778 9.53418C448.778 9.77441 448.834 9.98535 448.945 10.167C449.057 10.3428 449.232 10.5156 449.473 10.6855C449.719 10.8496 450.296 11.1484 451.204 11.582C452.405 12.1562 453.229 12.7334 453.674 13.3135C454.119 13.8877 454.342 14.5938 454.342 15.4316ZM460.6 17.04C461.068 17.04 461.631 16.9375 462.287 16.7324V18.7275C461.619 19.0264 460.799 19.1758 459.826 19.1758C458.754 19.1758 457.972 18.9062 457.479 18.3672C456.993 17.8223 456.75 17.0078 456.75 15.9238V11.1865H455.467V10.0527L456.943 9.15625L457.717 7.08203H459.431V9.17383H462.182V11.1865H459.431V15.9238C459.431 16.3047 459.536 16.5859 459.747 16.7676C459.964 16.9492 460.248 17.04 460.6 17.04ZM470.522 19L470.004 17.6641H469.934C469.482 18.2324 469.017 18.6279 468.536 18.8506C468.062 19.0674 467.44 19.1758 466.673 19.1758C465.729 19.1758 464.985 18.9062 464.44 18.3672C463.901 17.8281 463.632 17.0605 463.632 16.0645C463.632 15.0215 463.995 14.2539 464.722 13.7617C465.454 13.2637 466.556 12.9883 468.026 12.9355L469.731 12.8828V12.4521C469.731 11.4561 469.222 10.958 468.202 10.958C467.417 10.958 466.494 11.1953 465.434 11.6699L464.546 9.85938C465.677 9.26758 466.931 8.97168 468.308 8.97168C469.626 8.97168 470.637 9.25879 471.34 9.83301C472.043 10.4072 472.395 11.2803 472.395 12.4521V19H470.522ZM469.731 14.4473L468.694 14.4824C467.915 14.5059 467.335 14.6465 466.954 14.9043C466.573 15.1621 466.383 15.5547 466.383 16.082C466.383 16.8379 466.816 17.2158 467.684 17.2158C468.305 17.2158 468.8 17.0371 469.169 16.6797C469.544 16.3223 469.731 15.8477 469.731 15.2559V14.4473ZM484.233 19H481.553V13.2607C481.553 12.5518 481.427 12.0215 481.175 11.6699C480.923 11.3125 480.521 11.1338 479.971 11.1338C479.221 11.1338 478.679 11.3857 478.345 11.8896C478.011 12.3877 477.844 13.2168 477.844 14.377V19H475.163V9.17383H477.211L477.571 10.4307H477.721C478.02 9.95605 478.43 9.59863 478.951 9.3584C479.479 9.1123 480.076 8.98926 480.744 8.98926C481.887 8.98926 482.754 9.2998 483.346 9.9209C483.938 10.5361 484.233 11.4268 484.233 12.5928V19ZM490.104 19.1758C488.95 19.1758 488.042 18.7275 487.38 17.8311C486.724 16.9346 486.396 15.6924 486.396 14.1045C486.396 12.4932 486.729 11.2393 487.397 10.3428C488.071 9.44043 488.997 8.98926 490.175 8.98926C491.411 8.98926 492.354 9.46973 493.005 10.4307H493.093C492.958 9.69824 492.891 9.04492 492.891 8.4707V5.32422H495.58V19H493.523L493.005 17.7256H492.891C492.281 18.6924 491.353 19.1758 490.104 19.1758ZM491.045 17.04C491.73 17.04 492.231 16.8408 492.548 16.4424C492.87 16.0439 493.046 15.3672 493.075 14.4121V14.1221C493.075 13.0674 492.911 12.3115 492.583 11.8545C492.261 11.3975 491.733 11.1689 491.001 11.1689C490.403 11.1689 489.938 11.4238 489.604 11.9336C489.275 12.4375 489.111 13.1729 489.111 14.1396C489.111 15.1064 489.278 15.833 489.612 16.3193C489.946 16.7998 490.424 17.04 491.045 17.04ZM501.012 17.1104C500.707 18.2939 500.191 19.6973 499.465 21.3203H497.531C497.912 19.7617 498.208 18.291 498.419 16.9082H500.88L501.012 17.1104ZM519.152 12.4521C519.152 14.5674 518.549 16.1875 517.342 17.3125C516.141 18.4375 514.403 19 512.13 19H508.491V6.15039H512.525C514.623 6.15039 516.252 6.7041 517.412 7.81152C518.572 8.91895 519.152 10.4658 519.152 12.4521ZM516.322 12.5225C516.322 9.7627 515.104 8.38281 512.666 8.38281H511.216V16.75H512.385C515.01 16.75 516.322 15.3408 516.322 12.5225ZM530.675 19H527.994V13.2607C527.994 11.8428 527.467 11.1338 526.412 11.1338C525.662 11.1338 525.12 11.3887 524.786 11.8984C524.452 12.4082 524.285 13.2344 524.285 14.377V19H521.604V5.32422H524.285V8.11035C524.285 8.32715 524.265 8.83691 524.224 9.63965L524.162 10.4307H524.303C524.9 9.46973 525.85 8.98926 527.15 8.98926C528.305 8.98926 529.181 9.2998 529.778 9.9209C530.376 10.542 530.675 11.4326 530.675 12.5928V19ZM539.675 19L539.156 17.6641H539.086C538.635 18.2324 538.169 18.6279 537.688 18.8506C537.214 19.0674 536.593 19.1758 535.825 19.1758C534.882 19.1758 534.138 18.9062 533.593 18.3672C533.054 17.8281 532.784 17.0605 532.784 16.0645C532.784 15.0215 533.147 14.2539 533.874 13.7617C534.606 13.2637 535.708 12.9883 537.179 12.9355L538.884 12.8828V12.4521C538.884 11.4561 538.374 10.958 537.354 10.958C536.569 10.958 535.646 11.1953 534.586 11.6699L533.698 9.85938C534.829 9.26758 536.083 8.97168 537.46 8.97168C538.778 8.97168 539.789 9.25879 540.492 9.83301C541.195 10.4072 541.547 11.2803 541.547 12.4521V19H539.675ZM538.884 14.4473L537.847 14.4824C537.067 14.5059 536.487 14.6465 536.106 14.9043C535.726 15.1621 535.535 15.5547 535.535 16.082C535.535 16.8379 535.969 17.2158 536.836 17.2158C537.457 17.2158 537.952 17.0371 538.321 16.6797C538.696 16.3223 538.884 15.8477 538.884 15.2559V14.4473ZM546.891 13.6562L548.06 12.1621L550.811 9.17383H553.834L549.932 13.4365L554.071 19H550.978L548.147 15.0186L546.996 15.9414V19H544.315V5.32422H546.996V11.4238L546.855 13.6562H546.891ZM561.718 19L561.199 17.6641H561.129C560.678 18.2324 560.212 18.6279 559.731 18.8506C559.257 19.0674 558.636 19.1758 557.868 19.1758C556.925 19.1758 556.181 18.9062 555.636 18.3672C555.097 17.8281 554.827 17.0605 554.827 16.0645C554.827 15.0215 555.19 14.2539 555.917 13.7617C556.649 13.2637 557.751 12.9883 559.222 12.9355L560.927 12.8828V12.4521C560.927 11.4561 560.417 10.958 559.397 10.958C558.612 10.958 557.689 11.1953 556.629 11.6699L555.741 9.85938C556.872 9.26758 558.126 8.97168 559.503 8.97168C560.821 8.97168 561.832 9.25879 562.535 9.83301C563.238 10.4072 563.59 11.2803 563.59 12.4521V19H561.718ZM560.927 14.4473L559.89 14.4824C559.11 14.5059 558.53 14.6465 558.149 14.9043C557.769 15.1621 557.578 15.5547 557.578 16.082C557.578 16.8379 558.012 17.2158 558.879 17.2158C559.5 17.2158 559.995 17.0371 560.364 16.6797C560.739 16.3223 560.927 15.8477 560.927 15.2559V14.4473Z" fill="#424242"/>
</svg>
