<svg width="153" height="192" viewBox="0 0 153 192" fill="none" xmlns="http://www.w3.org/2000/svg">
<g filter="url(#filter0_dd_520_201)">
<path d="M43.2812 21H108.906C110.168 21 111.187 22.0198 111.188 23.2812V128.718C111.187 129.64 110.63 130.474 109.78 130.825L109.775 130.827C108.954 131.173 107.959 130.995 107.294 130.33C104.56 127.597 100.128 127.597 97.3945 130.33C96.5034 131.221 95.0601 131.221 94.1689 130.33C91.4355 127.597 87.0031 127.597 84.2695 130.33C83.3784 131.221 81.9351 131.221 81.0439 130.33C78.3105 127.597 73.8781 127.597 71.1445 130.33C70.2534 131.221 68.8101 131.221 67.9189 130.33C65.1855 127.597 60.7531 127.597 58.0195 130.33C57.1284 131.221 55.6851 131.221 54.7939 130.33C52.0605 127.597 47.6282 127.597 44.8945 130.33C44.2379 130.987 43.2526 131.178 42.4111 130.826L42.4072 130.824C41.5577 130.473 41.0001 129.64 41 128.718V23.2812C41 22.0199 42.0199 21 43.2812 21Z" fill="url(#paint0_linear_520_201)" stroke="url(#paint1_linear_520_201)" stroke-width="2"/>
<path d="M76.094 55.303C74.2867 55.303 72.8127 53.8321 72.8127 52.0217C72.8127 50.2114 74.2867 48.7405 76.094 48.7405C77.9013 48.7405 79.3752 50.2114 79.3752 52.0217C79.3752 53.8354 80.8428 55.303 82.6565 55.303C84.4701 55.303 85.9377 53.8354 85.9377 52.0217C85.9377 47.7495 83.1867 44.1415 79.3752 42.7824V38.8967C79.3752 37.0831 77.9076 35.6155 76.094 35.6155C74.2803 35.6155 72.8127 37.0831 72.8127 38.8967V42.7824C69.0012 44.1415 66.2502 47.7495 66.2502 52.0217C66.2502 57.4498 70.6659 61.8655 76.094 61.8655C77.9013 61.8655 79.3752 63.3364 79.3752 65.1467C79.3752 66.9571 77.9013 68.428 76.094 68.428C74.2867 68.428 72.8127 66.9571 72.8127 65.1467C72.8127 63.3331 71.3451 61.8655 69.5315 61.8655C67.7178 61.8655 66.2502 63.3331 66.2502 65.1467C66.2502 69.4189 69.0012 73.027 72.8127 74.3861V78.2717C72.8127 80.0854 74.2803 81.553 76.094 81.553C77.9076 81.553 79.3752 80.0854 79.3752 78.2717V74.3861C83.1867 73.0272 85.9377 69.4189 85.9377 65.1467C85.9377 59.7187 81.5223 55.303 76.094 55.303ZM76.094 88.1155H56.4065C54.5928 88.1155 53.1252 89.5831 53.1252 91.3967C53.1252 93.2104 54.5928 94.678 56.4065 94.678H76.094C77.9076 94.678 79.3752 93.2104 79.3752 91.3967C79.3752 89.5831 77.9076 88.1155 76.094 88.1155ZM76.094 101.24H56.4065C54.5928 101.24 53.1252 102.708 53.1252 104.522C53.1252 106.335 54.5928 107.803 56.4065 107.803H76.094C77.9076 107.803 79.3752 106.335 79.3752 104.522C79.3752 102.708 77.9076 101.24 76.094 101.24ZM89.219 94.678H95.7815C97.5951 94.678 99.0627 93.2104 99.0627 91.3967C99.0627 89.5831 97.5951 88.1155 95.7815 88.1155H89.219C87.4053 88.1155 85.9377 89.5831 85.9377 91.3967C85.9377 93.2104 87.4053 94.678 89.219 94.678ZM95.7815 101.24H89.219C87.4053 101.24 85.9377 102.708 85.9377 104.522C85.9377 106.335 87.4053 107.803 89.219 107.803H95.7815C97.5951 107.803 99.0627 106.335 99.0627 104.522C99.0627 102.708 97.5951 101.24 95.7815 101.24Z" fill="white"/>
</g>
<defs>
<filter id="filter0_dd_520_201" x="0" y="0" width="152.188" height="192" filterUnits="userSpaceOnUse" color-interpolation-filters="sRGB">
<feFlood flood-opacity="0" result="BackgroundImageFix"/>
<feColorMatrix in="SourceAlpha" type="matrix" values="0 0 0 0 0 0 0 0 0 0 0 0 0 0 0 0 0 0 127 0" result="hardAlpha"/>
<feOffset dy="20"/>
<feGaussianBlur stdDeviation="20"/>
<feColorMatrix type="matrix" values="0 0 0 0 1 0 0 0 0 0.680498 0 0 0 0 0 0 0 0 0.29 0"/>
<feBlend mode="normal" in2="BackgroundImageFix" result="effect1_dropShadow_520_201"/>
<feColorMatrix in="SourceAlpha" type="matrix" values="0 0 0 0 0 0 0 0 0 0 0 0 0 0 0 0 0 0 127 0" result="hardAlpha"/>
<feOffset dy="5"/>
<feGaussianBlur stdDeviation="5"/>
<feColorMatrix type="matrix" values="0 0 0 0 1 0 0 0 0 0.680498 0 0 0 0 0 0 0 0 0.26 0"/>
<feBlend mode="normal" in2="effect1_dropShadow_520_201" result="effect2_dropShadow_520_201"/>
<feBlend mode="normal" in="SourceGraphic" in2="effect2_dropShadow_520_201" result="shape"/>
</filter>
<linearGradient id="paint0_linear_520_201" x1="76.0939" y1="-22.8026" x2="76.0939" y2="169.452" gradientUnits="userSpaceOnUse">
<stop offset="0.630208" stop-color="#FFAE00"/>
<stop offset="1" stop-color="#FFCD1E"/>
</linearGradient>
<linearGradient id="paint1_linear_520_201" x1="76.0939" y1="20" x2="76.0939" y2="132" gradientUnits="userSpaceOnUse">
<stop stop-color="#FF9F00"/>
<stop offset="1" stop-color="#FFB800"/>
</linearGradient>
</defs>
</svg>
