<svg width="312" height="37" viewBox="0 0 312 37" fill="none" xmlns="http://www.w3.org/2000/svg">
<mask id="mask0_401_1244" style="mask-type:alpha" maskUnits="userSpaceOnUse" x="0" y="3" width="28" height="31">
<path d="M8.89428 29.748C8.89428 31.7493 7.27197 33.3716 5.27075 33.3716C3.26953 33.3716 1.64722 31.7493 1.64722 29.748C1.64722 27.7468 3.26953 26.1245 5.27075 26.1245C7.27197 26.1245 8.89428 27.7468 8.89428 29.748Z" fill="#C4C4C4"/>
<path d="M26.3533 29.748C26.3533 31.7493 24.731 33.3716 22.7297 33.3716C20.7285 33.3716 19.1062 31.7493 19.1062 29.748C19.1062 27.7468 20.7285 26.1245 22.7297 26.1245C24.731 26.1245 26.3533 27.7468 26.3533 29.748Z" fill="#C4C4C4"/>
<path fill-rule="evenodd" clip-rule="evenodd" d="M25.1913 27.0891C25.4382 27.3178 25.4094 27.7042 25.1508 27.9196C23.7802 29.0612 22.0174 29.748 20.0941 29.748H19.7649C19.401 29.748 19.0998 29.4504 19.1652 29.0924C19.4737 27.4042 20.9522 26.1245 22.7296 26.1245C23.68 26.1245 24.545 26.4904 25.1913 27.0891ZM27.0987 25.5115C26.8986 25.8926 26.3844 25.9263 26.0504 25.655C25.144 24.9187 23.9883 24.4775 22.7296 24.4775C20.0414 24.4775 17.8233 26.4899 17.4996 29.0905C17.4547 29.4515 17.164 29.748 16.8002 29.748H11.2C10.8361 29.748 10.5455 29.4515 10.5006 29.0905C10.1769 26.4899 7.95876 24.4775 5.27059 24.4775C4.0118 24.4775 2.85608 24.9187 1.94969 25.6551C1.61563 25.9264 1.10145 25.8927 0.901402 25.5116C0.325709 24.415 0 23.1666 0 21.8421V20.1949C0 19.8311 0.294965 19.5361 0.658823 19.5361H27.3412C27.705 19.5361 28 19.8311 28 20.1949V21.8421C28 23.1665 27.6743 24.4149 27.0987 25.5115ZM28 17.2302C28 17.5941 27.705 17.889 27.3412 17.889H0.658824C0.294965 17.889 0 17.5941 0 17.2302V13.2773C0 12.9135 0.294965 12.6185 0.658823 12.6185H27.3412C27.705 12.6185 28 12.9135 28 13.2773V17.2302ZM7.90588 3.39502C3.883 3.39502 0.561907 6.3997 0.0643695 10.2873C0.0168356 10.6587 0.318678 10.9714 0.693122 10.9714H27.3069C27.6813 10.9714 27.9832 10.6587 27.9356 10.2873C27.4381 6.3997 24.117 3.39502 20.0941 3.39502H7.90588ZM5.27059 26.1245C7.04795 26.1245 8.52644 27.4042 8.83496 29.0924C8.90037 29.4504 8.59914 29.748 8.23528 29.748H7.90588C5.98268 29.748 4.21987 29.0613 2.84928 27.9197C2.59074 27.7043 2.56193 27.3178 2.80878 27.0892C3.45509 26.4905 4.3201 26.1245 5.27059 26.1245Z" fill="#C4C4C4"/>
</mask>
<g mask="url(#mask0_401_1244)">
<rect x="-1.64722" y="1.08936" width="33.6" height="10.8706" fill="url(#paint0_linear_401_1244)"/>
<rect x="-1.64722" y="18.8774" width="33.6" height="16.4706" fill="#FFA833"/>
<rect x="-1.64722" y="11.96" width="33.6" height="7.24706" rx="3.62353" fill="#F17228"/>
<rect x="-23.0586" y="26.1245" width="31.9529" height="7.24706" fill="#F58D00"/>
<rect x="19.1062" y="26.1245" width="31.9529" height="7.24706" fill="#F58D00"/>
<ellipse cx="8.11249" cy="6.20646" rx="1" ry="0.5" transform="rotate(-20.8548 8.11249 6.20646)" fill="white"/>
<ellipse cx="14" cy="5.8833" rx="1" ry="0.5" fill="white"/>
<ellipse cx="19.1176" cy="6.29555" rx="1" ry="0.5" transform="rotate(28.1155 19.1176 6.29555)" fill="white"/>
</g>
<path d="M42.2999 30V18.147H40.2466V14.756L42.2999 14.6005V13.7605C42.2999 12.6613 42.4866 11.6657 42.8599 10.7739C43.2332 9.88207 43.8347 9.16654 44.6643 8.62729C45.4939 8.08805 46.6035 7.81843 47.9931 7.81843C48.636 7.81843 49.2271 7.88065 49.7664 8.00509C50.3056 8.12953 50.7412 8.25397 51.073 8.37841L50.233 11.7383C49.9634 11.6346 49.6938 11.562 49.4242 11.5205C49.1545 11.4583 48.8953 11.4272 48.6464 11.4272C48.0864 11.4272 47.6509 11.6035 47.3398 11.9561C47.0287 12.2879 46.8731 12.8479 46.8731 13.636V14.5693H49.6419V18.147H46.8731V30H42.2999ZM57.6701 30.3733C56.3634 30.3733 55.1294 30.0622 53.9679 29.44C52.8272 28.7971 51.9043 27.8741 51.1991 26.6712C50.494 25.4475 50.1414 23.9854 50.1414 22.2847C50.1414 20.5632 50.494 19.1011 51.1991 17.8981C51.9043 16.6952 52.8272 15.7826 53.9679 15.1604C55.1294 14.5175 56.3634 14.196 57.6701 14.196C58.9767 14.196 60.2004 14.5175 61.3411 15.1604C62.4818 15.7826 63.4047 16.6952 64.1099 17.8981C64.815 19.1011 65.1676 20.5632 65.1676 22.2847C65.1676 23.9854 64.815 25.4475 64.1099 26.6712C63.4047 27.8741 62.4818 28.7971 61.3411 29.44C60.2004 30.0622 58.9767 30.3733 57.6701 30.3733ZM57.6701 26.6712C58.6034 26.6712 59.3085 26.2771 59.7855 25.489C60.2626 24.6802 60.5011 23.612 60.5011 22.2847C60.5011 20.9366 60.2626 19.8684 59.7855 19.0803C59.3085 18.2922 58.6034 17.8981 57.6701 17.8981C56.716 17.8981 56.0005 18.2922 55.5235 19.0803C55.0672 19.8684 54.839 20.9366 54.839 22.2847C54.839 23.612 55.0672 24.6802 55.5235 25.489C56.0005 26.2771 56.716 26.6712 57.6701 26.6712ZM74.1487 30.3733C72.8421 30.3733 71.6081 30.0622 70.4466 29.44C69.3059 28.7971 68.383 27.8741 67.6778 26.6712C66.9727 25.4475 66.6201 23.9854 66.6201 22.2847C66.6201 20.5632 66.9727 19.1011 67.6778 17.8981C68.383 16.6952 69.3059 15.7826 70.4466 15.1604C71.6081 14.5175 72.8421 14.196 74.1487 14.196C75.4554 14.196 76.679 14.5175 77.8197 15.1604C78.9604 15.7826 79.8834 16.6952 80.5885 17.8981C81.2937 19.1011 81.6463 20.5632 81.6463 22.2847C81.6463 23.9854 81.2937 25.4475 80.5885 26.6712C79.8834 27.8741 78.9604 28.7971 77.8197 29.44C76.679 30.0622 75.4554 30.3733 74.1487 30.3733ZM74.1487 26.6712C75.082 26.6712 75.7872 26.2771 76.2642 25.489C76.7413 24.6802 76.9798 23.612 76.9798 22.2847C76.9798 20.9366 76.7413 19.8684 76.2642 19.0803C75.7872 18.2922 75.082 17.8981 74.1487 17.8981C73.1947 17.8981 72.4792 18.2922 72.0021 19.0803C71.5459 19.8684 71.3177 20.9366 71.3177 22.2847C71.3177 23.612 71.5459 24.6802 72.0021 25.489C72.4792 26.2771 73.1947 26.6712 74.1487 26.6712ZM89.5075 30.3733C87.5994 30.3733 86.0646 29.6578 84.9031 28.2267C83.7624 26.7749 83.1921 24.7942 83.1921 22.2847C83.1921 20.6047 83.4928 19.1633 84.0943 17.9604C84.7165 16.7367 85.515 15.8034 86.4898 15.1604C87.4853 14.5175 88.5223 14.196 89.6008 14.196C90.4511 14.196 91.1667 14.3412 91.7474 14.6316C92.3281 14.9219 92.8777 15.316 93.3962 15.8138L93.2096 13.4494V8.19175H97.7828V30H94.0495L93.7384 28.4756H93.614C93.0748 29.0148 92.4422 29.4711 91.7163 29.8444C90.9904 30.197 90.2541 30.3733 89.5075 30.3733ZM90.6896 26.6401C91.1874 26.6401 91.6333 26.5364 92.0274 26.329C92.4422 26.1216 92.8362 25.7586 93.2096 25.2401V18.9248C92.8155 18.5514 92.3903 18.2922 91.934 18.147C91.4985 18.0018 91.0733 17.9292 90.6585 17.9292C89.9326 17.9292 89.2897 18.2818 88.7297 18.987C88.1697 19.6714 87.8897 20.7499 87.8897 22.2225C87.8897 23.7365 88.1282 24.8564 88.6053 25.5824C89.103 26.2875 89.7978 26.6401 90.6896 26.6401Z" fill="#F17228"/>
<path d="M104.88 28H110.448L111.662 22.058C111.942 20.6269 112.128 19.258 112.377 17.4848H112.502C112.75 19.258 112.999 20.6269 113.279 22.058L114.524 28H120.248L123.888 12.5382H119.439L118.07 19.5069C117.79 21.0002 117.666 22.4935 117.386 24.1734H117.261C116.981 22.4935 116.701 21.0002 116.359 19.5069L114.71 12.5382H110.448L108.862 19.5069C108.519 20.9691 108.271 22.4935 107.991 24.1734H107.866C107.648 22.4935 107.462 21.0002 107.213 19.5069L105.813 12.5382H101.053L104.88 28ZM129.595 28.3733C131.338 28.3733 132.738 27.5956 134.013 26.4445H134.138L134.48 28H138.4V19.2269C138.4 14.3737 136.16 12.1649 132.178 12.1649C129.751 12.1649 127.542 12.9427 125.52 14.1871L127.2 17.2981C128.755 16.427 130 15.9915 131.244 15.9915C132.831 15.9915 133.484 16.7381 133.609 18.0136C127.511 18.6358 124.991 20.4091 124.991 23.6757C124.991 26.2578 126.764 28.3733 129.595 28.3733ZM131.244 24.6401C130.187 24.6401 129.595 24.2046 129.595 23.3024C129.595 22.2135 130.529 21.3735 133.609 20.9691V23.4268C132.862 24.1734 132.209 24.6401 131.244 24.6401ZM149.059 28.3054C147.905 28.3054 146.819 28.1358 145.801 27.7964C144.783 27.44 143.892 26.914 143.128 26.2182C142.382 25.5055 141.788 24.6231 141.347 23.571C140.922 22.502 140.71 21.2632 140.71 19.8548C140.71 18.4633 140.931 17.233 141.372 16.164C141.813 15.078 142.407 14.1701 143.154 13.4404C143.917 12.6938 144.8 12.1253 145.801 11.735C146.802 11.3447 147.854 11.1496 148.957 11.1496C150.179 11.1496 151.231 11.3702 152.114 11.8114C153.013 12.2356 153.76 12.7447 154.354 13.3386L152.063 16.1385C151.655 15.7822 151.223 15.4937 150.765 15.2731C150.323 15.0355 149.772 14.9167 149.11 14.9167C148.55 14.9167 148.032 15.027 147.557 15.2476C147.082 15.4682 146.666 15.7822 146.31 16.1894C145.954 16.5967 145.674 17.0973 145.47 17.6912C145.283 18.2851 145.19 18.9554 145.19 19.7021C145.19 21.2632 145.538 22.4596 146.234 23.291C146.929 24.1225 148.024 24.5383 149.517 24.5383C149.755 24.5383 149.984 24.5128 150.205 24.4619C150.442 24.411 150.637 24.3347 150.79 24.2328V21.942H148.346V18.3785H154.659V26.2691C154.065 26.8291 153.276 27.3127 152.292 27.72C151.308 28.1103 150.23 28.3054 149.059 28.3054ZM164.185 28.3733C168.136 28.3733 171.776 25.3867 171.776 20.2536C171.776 15.1204 168.136 12.1649 164.185 12.1649C160.265 12.1649 156.626 15.1204 156.626 20.2536C156.626 25.3867 160.265 28.3733 164.185 28.3733ZM164.185 24.4845C162.381 24.4845 161.541 22.8357 161.541 20.2536C161.541 17.7025 162.381 16.0226 164.185 16.0226C165.99 16.0226 166.83 17.7025 166.83 20.2536C166.83 22.8357 165.99 24.4845 164.185 24.4845ZM174.036 28H178.827V17.6403C179.791 16.7692 180.445 16.2403 181.534 16.2403C182.778 16.2403 183.338 16.8937 183.338 19.0403V28H188.16V18.4181C188.16 14.5604 186.729 12.1649 183.369 12.1649C181.254 12.1649 179.698 13.2227 178.423 14.4671H178.298L177.956 12.5382H174.036V28Z" fill="#FFB30E"/>
<defs>
<linearGradient id="paint0_linear_401_1244" x1="14.9999" y1="2.8833" x2="14.9999" y2="20.3833" gradientUnits="userSpaceOnUse">
<stop stop-color="#FFD16D"/>
<stop offset="1" stop-color="#FF7A00"/>
</linearGradient>
</defs>
</svg>
